<?xml version="1.0" encoding="utf-8"?>
<!-- Generator: Adobe Illustrator 22.0.1, SVG Export Plug-In . SVG Version: 6.00 Build 0)  -->
<svg version="1.1" id="Layer_1" xmlns="http://www.w3.org/2000/svg" xmlns:xlink="http://www.w3.org/1999/xlink" x="0px" y="0px"
	 viewBox="0 0 1218 171" style="enable-background:new 0 0 1218 171;" xml:space="preserve">
<style type="text/css">
	.st0{fill:#565656;}
</style>
<g>
	<path class="st0" d="M100,161v10H0v-10H100z"/>
	<path class="st0" d="M175.4,3.4l55.8,142.8h-21l-15.6-43h-60.4l-16,43H98.8L154.4,3.4H175.4z M188.6,87.2l-23.8-66.6h-0.4
		l-24.2,66.6H188.6z"/>
	<path class="st0" d="M312.4,3.4c13.6,0,24.2,3.3,31.9,10c7.7,6.7,11.5,15.8,11.5,27.4c0,8.7-2,16.3-5.9,22.8
		c-3.9,6.5-10.2,11-18.9,13.4v0.4c4.1,0.8,7.5,2.1,10.1,4c2.6,1.9,4.7,4.1,6.2,6.7c1.5,2.6,2.7,5.5,3.4,8.7c0.7,3.2,1.3,6.5,1.7,10
		c0.3,3.5,0.5,7,0.6,10.6c0.1,3.6,0.5,7.1,1,10.6c0.5,3.5,1.3,6.8,2.3,9.9c1,3.1,2.5,5.9,4.5,8.3h-21.2c-1.3-1.5-2.2-3.5-2.7-6
		c-0.5-2.5-0.8-5.4-0.9-8.5c-0.1-3.1-0.3-6.5-0.4-10.1c-0.1-3.6-0.5-7.1-1.2-10.6c-0.5-3.5-1.2-6.8-2-9.9c-0.8-3.1-2.1-5.9-3.8-8.2
		c-1.7-2.3-4-4.2-6.8-5.6s-6.5-2.1-11.2-2.1h-46.4v61h-19V3.4H312.4z M316.4,68.2c4-0.7,7.5-2,10.5-3.9c3-1.9,5.4-4.5,7.2-7.8
		c1.8-3.3,2.7-7.5,2.7-12.7c0-7.2-2-13.1-6-17.6c-4-4.5-10.5-6.8-19.4-6.8h-47.2v49.8h39.6C308.2,69.2,312.4,68.9,316.4,68.2z"/>
	<path class="st0" d="M468.5,23.6c-7.3-5.1-15.9-7.6-25.9-7.6c-8.5,0-15.8,1.6-21.9,4.8c-6.1,3.2-11.1,7.5-15,12.9
		c-3.9,5.4-6.8,11.6-8.7,18.5c-1.9,6.9-2.8,14.1-2.8,21.6c0,8.1,0.9,15.8,2.8,23.1c1.9,7.3,4.8,13.6,8.7,19c3.9,5.4,9,9.7,15.1,12.9
		c6.1,3.2,13.5,4.8,22,4.8c6.3,0,11.8-1,16.7-3.1c4.9-2.1,9.1-4.9,12.6-8.6c3.5-3.7,6.3-8,8.3-13.1c2-5.1,3.2-10.5,3.6-16.4h19
		c-1.9,18-8.1,32-18.6,42c-10.5,10-24.9,15-43.2,15c-11.1,0-20.7-1.9-29-5.7c-8.3-3.8-15.1-9-20.6-15.7c-5.5-6.7-9.6-14.5-12.3-23.6
		c-2.7-9.1-4.1-18.8-4.1-29.2s1.5-20.2,4.4-29.3c2.9-9.1,7.2-17.1,12.9-23.9c5.7-6.8,12.7-12.2,21.2-16.1C422.2,2,431.9,0,442.8,0
		c7.5,0,14.5,1,21.2,3c6.7,2,12.6,4.9,17.8,8.8c5.2,3.9,9.5,8.7,13,14.5c3.5,5.8,5.7,12.5,6.8,20.1h-19
		C480.5,36.3,475.8,28.7,468.5,23.6z"/>
	<path class="st0" d="M545.6,3.4v61.4h75.2V3.4h19v142.8h-19V80.8h-75.2v65.4h-19V3.4H545.6z"/>
	<path class="st0" d="M690.8,3.4v142.8h-19V3.4H690.8z"/>
	<path class="st0" d="M709.8,29.8V3.4h117v26.4H784v116.4h-31.4V29.8H709.8z"/>
	<path class="st0" d="M950,3.4v26.4h-75.4v30.6h69.2v24.4h-69.2v35h77v26.4H843.2V3.4H950z"/>
	<path class="st0" d="M1004.2,3.4v59.2L1060,3.4h39.2l-55.8,56.4l61.2,86.4h-39.4l-43-64.2l-18,18.2v46h-31.4V3.4H1004.2z"/>
	<path class="st0" d="M1103.8,19.4v-16H1218v16h-47.6v126.8h-19V19.4H1103.8z"/>
</g>
</svg>
